<svg version="1.1" id="Camada_1" xmlns="http://www.w3.org/2000/svg" x="0" y="0" viewBox="0 0 2500 2295.7" style="enable-background:new 0 0 2500 2295.7" xml:space="preserve"><style>.st0{fill-rule:evenodd;clip-rule:evenodd}</style><path class="st0" d="M1687.3 494.8c.6-1.5 18.2 135.5 19.7 135.2 20.6-3.8 90.1-30.5 103.3-38.5 1.1-.7-35.6 92.4-94.7 142.3-1.6 1.4 4.9 76.2 5.6 111.5 0 1.7-62.2-22.9-91.5-39.4-42.7 27.6-143.7 58.7-143.6 60.5l2.6 101c0 1.1 150.7-16.9 149.2-15.6-123.7 102.9-237.2 149.6-382.1 150.4-3 0 63.1-40.9 75.4-67.5-10.7-10.6-59.3-51.4-70.6-64.9 1.5-2.6 89.2 5.3 130.7 5.2 28.6-29.8 55.9-61.1 79.2-95.2 27.7-40.4 56.2-80.5 77.8-124.6 1-2.1-74.7-63.5-102.5-100.2-1.2-1.6 102.9 2.9 152.8-1.7 6.3-.7 67.3-107.6 88.7-158.5zM1367.3 0c-29.2 19.3-106.1 85.9-103 86.9 38.7 13.3 79.2 26.4 116.8 46.5 1.2.6 2 1.7 3.3 3.8-56.6 4-110.7 2.2-168.5 14.2-25.7 33.2-51.1 94.9-59.9 136.9 26.4 42.8 52.4 85.2 81.3 125.5 4 1.6 130.6-32.7 191.4-49.6 0 0-113.2 151.9-112.5 152.7 0 0 120.5 132.7 119.1 132.5-61.4-8.8-184.8-38.9-186-36.9L1165.6 753c-10.1 47.7-17.9 98.3-23.4 149.4 1.9 3.7 110.7 61.9 110.7 61.9 1.5.8-73.4 10.5-109.6 9.7-3.3-.1-1.8 79.7 4.6 115.3.3 1.7-18.3 1.1-25.7-.4-21.4-19.8-97.8-120.4-100.3-120.7-61.9-6.1-123.8-15.8-182-38.3-1.5-.6 129.7-53.5 129.8-53.9.8-2.4-39.1-80.9-50.3-119.5-34.5-20.5-103.4-61.1-104.7-59.3-24.5 34.3-73.2 104.7-73.5 104.3-7-10.5-11.4-21.1-15.2-30.7 1.8-44.5 12-136.3 9.5-138.2-18.8-14.3-58.5-53.7-55.7-56.9 28.8-10.7 57.4-18.5 87.1-26.8 13.3-33.4 57.3-111.6 61.3-119.1-.3-4.8-38.4-47-50.8-66.3-2.1-3.3-91.2 81.2-91.1 80.3C712.6 273.1 822.8 152.9 884.4 112c1-.7-23.8 71.4-30.1 108.1-.4 2.2 56.5 2.7 82.6 4.4.3 2.3-80.9 62.6-99.9 78.5-3.1 59.8-5 140.8 6.3 224.1 2.9 3.1 82.8-.2 140.6-8.4 32.1-18 130.6-56.5 143.6-60.8 2.1-.7 13.4-115 26-169.5-4.9-7.1-74.5-105.8-74.5-105.8-1.6-2.4-87.1 23-126.4 36.6-1.8.6 62.1-76.3 93.1-94.9 2.8-6.4-31.5-87.5-31.5-87.5-.5-1.7 96.5 7.4 142.1 20.4 62.8-33.3 212.4-58.1 211-57.2zm-492 623c-2.5 2.9-5.7 6.1-4.6 10.2 11.1 42.1 29.3 81.9 50.3 121.9l17 13.5c31.3 23.7 62.4 47.7 94.9 69.7 4.3 3 10 3 14.3.1 40.3-26.4 80.8-52.9 116.4-86.4-13.5-56.5-26.2-114.1-28.7-173-.1-2.2-1.3-5.1-2.8-5.6l-147.7-52.2c-39.3 31.6-76.9 64.1-109.1 101.8z"/><path class="st0" d="M1587.4 94.9c.8-1.1 43.3 85.9 55.9 130.1 87.9 59.8 133.8 115.7 135.4 117.3-2.2 1.9-104.2-4.1-103.9-2.4 7 45.9 13.2 92.4 14.6 139.3-.6 0-2.9.2-3 0 0 0-103.2-147-107.7-144.2-48.9 3.7-94.8 13.6-142 24.4.3-.1-.9-.4-1.7-1.4 26.4-31.8 53.7-62.6 77.3-96.2 2-2.8-125.8-125.5-124.6-125.4 56.3 3.2 109.7 21.8 162.5 40 2.3.7 36.2-80.1 37.2-81.5zM881.7 1739.2c13.2 1.8 26.5 3.2 39.8 3l39.6-2.6 67.7 168.3c1.1 2.8 4.7 0 5.4-1.9l60.2-167c25.9 3.5 51.8 3.1 77.3-.4 1.8-.3 3.9.1 4.5 2 .5 1.9-.5 3.9-2.4 4.4-.4.1-.8.2-1.2.1-6.5-.4-12.6 4.5-12.3 10.9 2.8 72.3 9.3 144.4 15.6 216.6 5.2 6 12.8 7.9 19.4 8.6 1.2 3 .6 5.9-1.1 5.8-23.1-1.1-46.6-2.9-70.1-1.9-9.3.4-18.7 1.2-27.8 1.7-2.1.1-2.8-5.5-.4-5.7 4.7-.4 9.8-1.9 14.4-3.9 8-3.4 9.3-12.5 9-20.4-2-51.6-7-102.9-11.1-154.4-.1-1.1-3.5-2.5-4-.9l-42.1 118.9-22.2 64.4c-.8 2.5-5.7 2.1-9 2.2h-21.6c-1.9-.1-3.4-1.6-4.1-3.4-23-61.1-48.3-121.1-72.4-181.8-.5-1.4-3.3-1.9-3.5-.7-.8 5.6-1.6 11.3-1.5 17.1.2 50.4-5.1 100.8-2.4 150.5 3.4 6.8 9.4 10.6 16.1 10.9 3.5.1 7.4 1 9.2 3.9.7 1.1-.7 3.7-2.6 3.5-27.3-2.7-54.8-2.7-82.1-.2-1.7.2-2.3-5-.5-5.3 4.3-.6 8.5-2.4 12.7-3.9 3.4-1.3 7.4-4.5 7.7-8.9 5-70.2 10.1-141.4 11.1-212.8.1-4-3-7.4-7.8-8.9-3.1.4-6.9-1.2-9.5-3.5-1.7-1.4.1-4.6 2-4.3zm-340.6.5c1.4-.2 2.9.4 3.4 1.2 1 1.7.4 3.9-1.3 4.9-.6.3-1.3.5-1.9.5-6-.1-11.7 3.3-13.6 9-2.1 6.1-2 12.7-2 19.2.1 65.4 0 130.8 2.3 196.2.2 5.5 5.5 9.4 11.1 9.4 1.8 0 3.6.5 5.1 1.6 1 .7 1.5 2.1.7 3.5-.3.6-1.3 2.1-2.3 2-28.5-2.6-57.1-2.2-85.5 1.3-1.3.2-3.6.4-5.3-1-1-.8-1.5-2.1-.6-3.5 1.5-2.2 5.1-2.5 7.3-3.2 7.3-2.2 11.5-8.5 11.6-15.6.1-29.4 1.1-58.8.6-88.3 0-.8-1.5-2.2-2.4-2.2-31.6.7-63.2.7-94.5.2-2.2-.1-2.8 3.3-2.8 5.5l.5 86.4c-.1 6.1 3.6 11.3 10 13.9 2.5 1 7 1 8.6 3.9 1 1.8-1.3 4.2-3.4 4-29.4-3.1-59.1-4-87.4-1.4-2.5.2-3.3-2-3-3.4.3-1.1 1-2.9 2.3-2.7 7.5 1.1 15.7-4.4 15.9-12.9 1.4-69.8 2-139.7-.2-209.4-.2-7.1-6.9-12.3-14-11.5-2.1.2-4.3-2-3.8-4 .6-2.4 3.7-2.8 6.2-2.5 28.5 3.6 57.4 3.4 84.9-.1 2.7-.3 3.6 4.7 1.2 4.9-4.1.3-9.9 1.5-13.6 5.6-2.6 2.9-4 6.8-4 10.8l-.7 75.3c0 2.3 1.8 4.1 4 4.1l93.8-.4c.8 0 2.5-1.5 2.5-2.5l-.9-81.2c-.8-8.4-10.6-11-17.6-10.8-1.2-3.1-.6-6 1-5.9 17.4 1.9 35.2 2.8 53.1 2.4 11.5-.4 23.1-1.5 34.7-3.3zm1676.3-2.3c3.4-.5 6.9-.8 10.1-.5.9 2.4 0 5.2-2.1 6-3.2 1.1-7.3 1-10.4 3.4-5.9 4.6-6.3 12.8-5.4 20 .3 2-2 8-1.5 9.5 2.6 8.2.8 16.8.8 25.1l-.1 183.6c-13.6.7-27.2-.1-40.4-.6L2055 1816.8c-5.9-8.5-11.7-17.1-18.1-24.8-.8-1-2.9.1-2.9 1.2-1.9 56.5.1 113 1.5 169.5.2 8.2 8 14.1 16.2 14 .8 0 3.3.1 4 .3 2.6.7 3.2 6.4.6 6.1-23.7-2.9-48.5-2.3-72.8.5-1.7.2-2.2-3.7-.3-6.3 6.8.7 13.6-3.3 17-11.3l.8-210.4c-2-8.3-10.5-12.1-16.7-12.3-2.5-.1-1.6-5.5 1.1-5.1 25.1 3.4 51.8 3.5 78.4.5l107.3 160.3c.8 1.1 2 2.2 3.2 1.8.9-.4 2.1-1.5 2.1-2.2.2-47.4.5-94.7-1.4-142-2.5-9.2-12.2-14.4-20.4-12.6-2.4.5-3.8-3.3-2.6-5.6.6-1.2 2.8-1.5 4.7-1.2 20.2 3.1 40.6 3.3 60.7.2zm156.7-4.1c34-3.3 68.3-.4 101.3 8.5 1.4.4 3.3 1.5 3.3 3-.4 22.2 1.5 44.6 3.5 66.1.2 2.6-5.6 4.3-6.1 2.3-2.3-9.1-7.3-18.6-14-26.6-14.3-17-35.7-25.7-57.7-26.2-18.2-.4-38 .7-51.7 14-10.4 10-10.9 26.3-2.5 38.2 14.3 13.1 33.9 15.2 51.6 20.9 17.6 5.7 35.5 10.7 52.9 17.1 33.5 12.3 53.5 48.1 42.1 82.5-11.2 34.2-45.1 50.9-78.6 56-40 6-81 2.7-119.3-10.7-2.9-1-2.2-5.4-2.2-7.9-.7-23.7-.7-47-3-69.1-.3-2.8 2.6-3.8 4.3-3.1 2.3.9 3.5 3.3 3.9 5.7 6.5 34.8 38 58.6 73 57.7 20.8 2.1 43.3-.5 58.2-16.3 10.5-11.2 10.3-28.7-.5-39.7-7.5-7.6-17.8-11.2-27.7-14.4-30.1-9.7-61.7-15.6-88.8-32.6-28.3-17.9-35.4-54.7-20.2-83.5.9-1.8 3.9-7.1 5.1-8.7 18-22 45.8-30.6 73.1-33.2zm-2241.2-21c30.6-3.2 61.6-.7 91.3 7.5.8.2 2.1 1.4 2 2.2-.6 25.8 1.1 51.4 2.4 77.1.1 2.5-5.2 4.6-6.3 1.2-2.8-9.2-7.1-20.2-15.2-28.9-24.5-26.3-62.6-28.1-94.2-15.7-6.9 2.7-13.3 6.7-18.7 11.6-43.5 39-46.2 104.9-10 150.3 30.2 37.9 82.5 45.1 124.9 25.3 10.6-4.9 21.2-10 30.1-17.3 1.6-1.2 2.8 1.6 2.6 3.2l-4.4 36.5c-.3 2.2-2.2 3.9-4.2 5-35.8 20.8-77.7 28.2-118.7 21.4C44 1979.9-3.3 1915.8.2 1845.5c3.1-62.6 47.9-114.7 108.5-129 7.9-1.9 16-3.3 24.2-4.2zm1117.9 28.2c47.3 2.3 95-.9 142.5 3.1 37.9 3.2 72.6 31.3 71.7 71.6 3.6 39.4-26 72.2-63.9 79.1-23.1 4.2-47.3 1.9-67.5-10.7-2.5-1.6-3.2-4.9-1.1-7.8 19.4 3.9 40.2 2.6 57.6-8.1 22.1-19 24.7-50.5 11.7-75.5-8.8-11.7-23-17.1-37.1-18.1-12.6-.8-25.3-1-38-.7-1.8.1-1.9 2.5-2 4.6-.4 63.7-2 127.9 1.2 191.2 5.9 7.9 14.2 11 22.5 11.6 3 .2 3.8 6.2 1.8 6.1-32.6-1.9-65.3-2.5-97.8 1-2.1.2-4.5-3.1-2.8-4.6 2.7-2.2 6.2-4.2 10.1-4.8 7.4-5.3 8.3-14.2 8.4-22.2.6-36.6.3-73.3.4-109.9l-.1-87.4c-.5-7.6-9-12.9-15.5-11.7-2.7.5-3.8-3.1-3.2-5.2.1-.4.6-1.7 1.1-1.6zm527.5-6.4c40.6-4.7 83.1 6.2 110.8 38.3 43 49.9 44.9 122.9 3.9 174.3-43.5 47.6-115.8 61.7-169.7 23.4-57.4-40.8-72.6-119-36.7-179.1 19.6-32.8 54.3-52.6 91.7-56.9zm-3.3 34.4c-33.5 6.7-50.2 39.2-52.2 70.9-.5 7.1-.3 14.3.5 21.4 3.6 33.5 15.2 67.7 43.9 87.8 29.3 17.1 67.1 8.3 85.2-20.5 20.9-33.5 16.6-74.2 3.8-109.9-11.7-32.6-43.1-57.5-78.8-50.1-.5.2-1.9.3-2.4.4zm-116.6 332.7c2.2-.3 4.6-.8 6.6.4 1.3.8 1 4.2-.7 3.9-4.7-.8-10 2.9-12.1 8.1-2.1 45.5 0 91.2-2.7 137.2-1.8 19.5-13.7 29.4-21.8 33.5-28.4 14.4-61.1 13.2-91.6 7.2l-17.5-6c-21.1-9.6-33-31.8-32.3-55.1l-.5-114.3c0-3.8-2.7-7.3-5.9-8.8v-4.4c12.7 1.2 25.4 2 38.1 1l20.3-2.8c-.8 3.1-3.2 4.8-5.6 5.9-3.1 1.3-5.6 4.5-5.6 7.7.8 44.9-4 89.9.3 134.7 3.7 17.5 21.2 26.9 38.1 24.7 10.9 1 22-.6 30.6-6.4 7.2-4.9 11.2-12.9 12.5-21.2 2.4-15.5 2.5-31.3 2.1-47-.8-32.4 2-64.9-1.6-97.5 16.3 1.8 32.9 1.4 49.3-.8zm198.3.2c1.7-.1 3.6-1.2 5.1-.9 1 .2 2.3 1.5 2.3 2.4.1 14.1.9 28.3 2.5 42.3.2 1.5-1 3.2-2 3.4-3.5.4-5.7-3-6-6.4-.6-7.7-6.5-14.1-14.2-14.3-23.5-.7-47 .9-72.1 1.3.2 0-2.3.7-2.3 1.5l-.3 49.5c0 1.2 1.9 2.7 2.7 2.6 15.4-1.4 31.1-.6 46.5-3 6.1-.9 10.4-6.6 10.4-12.7 0-2.9 6.4-3.6 6.1-1.7-3.2 17.8-1.5 36.2.3 52.6.3 2.8-2 3.6-3.4 3.3-2.5-.7-3.7-3-4.2-5.4-.8-4.5-4.3-8.5-8.9-8.7l-47.7.7c-.4 0-2.4 1.5-2.3 2.6 1.1 18.2.9 36.7.7 55 0 .9 1.5 2.1 2.2 2.1 25.5.8 50.9-.5 76.5-1.6 1.8-.2 3.4-.8 4.8-1.9 8.9-7.4 13-18.8 14.2-28.9.3-2.5 7.3-.8 7.2.8-1.5 18.4-2.8 35.8-3 53.2 0 2.1-2.1 3.1-4.1 3.1l-154.1 1.1c-1.9 0-2.4-2.7-1.9-4.7 4.1-.9 8-2.5 11.5-4.8 1.7-1.1 2.2-3.6 2.2-4.9.2-53.8 2.7-107.4-.2-160.9-.5-5.9-5.6-10.3-11.5-9.8h-.3c-1.6.2-1.9-5.5-.5-5.4 33.8 2.9 68.1.9 102.2-.5l41.6-1zm-1038 1.8 149.2.2c1.4 0 3.6.9 3.5 2-.5 14.7 1.1 29.3 2.5 43.9.2 1.6-5.4 2.1-5.6.1-.8-7.8-5.1-16.3-13.8-19.8-23.5-.8-47.3-3.1-71.3-1.5-1.7.1-6.1-.6-6.1 1.5-.1 16 .3 32.9-.9 49-.1 1.6 2.1 2.5 3.2 2.5h46.4c5.7-.3 10-5.3 10.6-10.9.2-2.4 2.2-4.6 3.8-4.3 3 .4 2.4 3.6 2.3 5.6-1 16-1.3 31.9 0 47.7.1 1.3-1 2.4-2.4 2.4-1.5 0-3.1-1-3.2-2.4-.6-7.5-7-13.2-14.5-13.4-14.4-.4-28.9-.4-43.3-.2-2 .1-2.6 2.7-2.7 4.7-1 18.4-.9 36.8.3 55.1l22.9 1.3c19.7.5 39.4.1 59.1-1.3 3.2-.2 5.7-2.7 7.6-5.3 4.9-7 6.2-15.6 8.5-23.3 3-.5 5.1-.3 7.7.6-2.1 17.2-3.9 34.4-4 51.6 0 1.9-1.6 3.6-3.5 3.6-51.6-.7-103.3-2.1-154.6-1.8-1.8 0-2.7-2-2.7-4.4 4.5-1 8.8-3 12.7-5.5 3-5.8 2.2-12.2 2.3-18.2 1.2-48.3.7-96.6-.7-144.9-.2-6.6-7-10.3-12.5-9.9-1.7-2.6-1-4.7-.8-4.7zm511.4-4.3c23.4-2.5 46.8 2.2 68.7 11.3 3.2 3.4 2.1 8.3 2.1 12.6.3 12 .9 23.9 2.2 35.7-3 .5-5.8-.8-6.6-3.4-4.7-15.1-15.9-28.1-31.8-31.9l-19.8-3.6c-6.3.4-12.6 1.4-18.8 2.9-32.9 7.8-51.5 39.5-51.5 72.1.1 31.9 14.2 65.9 47.7 74.4 16.1 4.1 33.3-.1 44.1-11.2 2.5-5.3 4-11.1 4.4-16.9.7-9.9-.1-19.8-2.2-29.4-.4-1.9-1.9-3.5-3.7-5.5 20.3 1.4 39.9 1 59.2-2.4 1.1-.2 2.3 0 3.8 1.1-5.1 3.6-9.9 6.9-14.2 9-2.8 1.4-3.8 5.4-3.8 8.2l-.1 65.6c-4.4 2.7-9.9 2.6-14.2-.3-2.8-4.6-3.8-9.5-5-14.2-1.6 0-5.6-.6-6.3 0-20.8 19.5-50.1 25.2-77.6 19.7-46.1-9.2-79.2-51.6-72.2-98.8-3.1-42.6 28-77.2 67-89.3 9.4-2.9 18.9-4.8 28.6-5.7zm187.9-360.1c27.6 4.1 55.6 4.1 83.1-.1 1.2-.2 2.4.8 1.5 1.9-2.5 2.8-5.5 5.1-8.1 7.9-1.8 1.9-4 5.1-4 8.1v211.2c0 3.2 3.2 6 6.3 8.3-1.8 2.5-5 3.1-6.2 3.2-21.8 1.6-43.7 2.7-65.6 3.6-.4-1.1-.2-3 1.4-3.3 5.3-1.3 9.1-6 9.3-11.5 1.1-55.5-.5-209.5-.5-209.5-.4-7.4-6.4-13.3-13.8-13.5-2-.1-4-1-4.9-2.8-.6-1-.1-3.7 1.5-3.5zm-887 362.4c23.2 3.4 48.2 3.1 72.4-.4 1.5-.2 3 2 2.5 3.4-.3 1-1.5 2.3-2.5 2.3-4.2.1-8.4 1.9-12.2 4.3-2.2 1.4-3.2 4.9-3.2 7.9-1.2 48.3-.4 96.5-.3 143.6 0 3.1 3.4 3.3 6.4 3.3 20.4.2 41.7-.9 62.9-1.8 11.1-2.6 17.5-12.8 20.1-23.2.7-2.8 1.4-6 3.8-7.4 1.6-.9 3.6-.4 6 .8-3.2 18-7.2 36.1-7.7 54.7 0 1-2 2.1-3.5 2-48.5-.2-97-.9-145.4.7-1.7.1-2.7-3.9-.9-4.2 3.7-.8 7.7-3.1 10.8-5.3 1.7-1.2 2.2-3.6 2.2-4.9 1.7-54.8 1-109.3.7-162.6-2.3-5.1-7.2-8.4-12.8-8.5-2.2.1-1.8-5 .7-4.7zm38.5-361.5c23.4 4.1 48.1 3.9 71.9.4 24.1 76.8 50.2 151.6 77.2 226 3 8.4 11.5 13.3 19.5 14.9.7 3.3-.3 6.1-2.6 5.9-31.4-3.5-63.9-2.8-96-.2-2.1.2-3.3-4.7.2-5.6 4.3-1.1 10.7-2.5 15.2-7.1 2.3-2.3 3.3-5.5 2.9-8.7-2.3-18.6-9.9-35.9-15-53.8-.7-2.1-2.6-3.5-4.8-3.4-24.4.5-48.9-2.1-73.3.3-1.9.2-3.5 1.5-4.1 3.3-6.7 17.2-14.2 34.2-19.3 52-1.7 5.7 1.2 11.9 6.8 13.9 4 1.4 8 3 11.6 4.5 1.4.6-.3 4.8-2.1 4.5-25.1-3.9-50.6-4.1-75.7-.7-2.1.3-3.3-2.2-3-3.2.9-2.7 3.4-3.9 5.9-4.3 3.2-.5 6-2.2 8-4.7 11.8-16 16.7-35.5 24.3-53.6 22.7-53.7 45.8-107.2 66-161.9 1.4-4-.8-8.3-4.7-9.6h-.1c-3.8-1.2-7.3-2.9-9.9-5.2-1.3-.8-.3-3.9 1.1-3.7zm5.7 134.9c-.9 2.3-1.4 6.5-.1 6.4 18.1-.3 35.9 1 54.3.7.4 0 3.1-1.9 2.8-2.9-9.2-28.3-16.7-57.2-22.5-86.4-.3-1.8-3.7-2.5-4.3-.5-8.7 27.8-19.7 55.2-30.2 82.7zm398.5 228.2c17.5 3.2 36.1 3.7 54.7.4 2.5 4.5 4.1 9.6 5.7 14.7l53.3 158.5c1.7 4.5 5.6 7.9 9.7 10.5 1.2.8-.5 2.8-.7 2.8l-49 1.3c-5.9.8-11.7 3-18 3.6-1.2.1-2.7-.4-3.2-1.6-.6-1.6-.2-3.6 1.3-3.8 5.3-.7 10.2-3.3 14.8-8.3-.7-15.5-8-30.3-13.4-46.7-20-.1-40.3.3-61.3.7-5.4 13.5-11.1 27.3-15.2 41.5-.9 3-.7 7.1 1.5 8.5 3.6 2.4 7.2 4.4 10.8 4.9 2 .2 1.4 5-.7 4.7-19.3-2.7-38.9-2.7-58.3-.1-1.8.3-2.9-2-2.9-4.6 5.3-2.2 11.7-4.2 14.2-10 23.3-53.5 44.7-107.8 67-161.4-.4-5.4-4.6-9.4-9.3-9.4-2 0-3-2.5-2.4-4.5 0-.1.7-1.8 1.4-1.7zm4.2 104.9c-.5 1.4-.6 5.2 1.8 5.3h38c1.4 0 3.7-1.5 3.2-2.8-7-20.9-13-42.6-16.8-63.8-.3-1.6-3.4-.5-3.9.9-6.3 20.2-14.1 39.9-22.3 60.4z"/><path d="M1685.6 1495.2c-57.2-58.7-125.5-105.3-200.9-137.2-75.3-31.7-156.3-48-238-47.9-81.7-.1-162.7 16.1-238 47.8-75.5 31.9-143.8 78.5-200.9 137.2l-14.9-14.5c59.1-60.6 129.8-108.9 207.8-141.8 77.9-32.8 161.6-49.7 246.1-49.6 87.2 0 170.4 17.6 246.1 49.6 78 32.9 148.7 81.2 207.8 141.8l-15.1 14.6zM1508 1670.9c-33.3-36.3-73.7-65.3-118.7-85.1-45-19.7-93.5-29.9-142.6-29.8-50.8 0-99.1 10.7-142.7 29.9-45.1 19.9-85.5 48.9-118.8 85.2l-15.4-14.1c35.2-38.5 78-69.2 125.8-90.2 47.6-21 99.1-31.8 151.1-31.7 53.7 0 104.8 11.3 151 31.6 47.7 21 90.5 51.7 125.7 90.1l-15.4 14.1z"/><path class="st0" d="m956.3 1434.3 45.4 58.8c26.5 34.3 12.3 64.3-16.1 86.2-30.1 23.3-62.6 26-87.4-6l-45.6-59 25.8-20 46 59.6c11.5 14.9 29.2 15.5 44.1 4 13.7-10.6 20.8-27.5 6.5-46l-44.6-57.7 25.9-19.9zM1209 1486l-94.4 20.2-27.5-128 93.2-19.9 5 23.5-61.2 13.1 5.7 26.9 58.4-12.5 5 23.5-58.4 12.5 6.6 30.8 62.5-13.4 5.1 23.3zm192.8-87-56.6-11-5.6 28.6 56.6 11-4.6 23.6-56.6-11-10.2 52.8-32.1-6.2 25-128.6 88.6 17.2-4.5 23.6zm141.7 136.3-33.1-23 44.8-30.9-11.7 53.9zm44.7-69.1-31.1-21.6-118 77.5 28.4 19.7 22.8-15.7 48.1 33.4-5.9 27.4 28.9 20 26.8-140.7z"/></svg>